<?xml version="1.0" standalone="no"?>
<!DOCTYPE svg PUBLIC "-//W3C//DTD SVG 20010904//EN"
 "http://www.w3.org/TR/2001/REC-SVG-20010904/DTD/svg10.dtd">
<svg version="1.0" xmlns="http://www.w3.org/2000/svg"
 width="1306.000000pt" height="1204.000000pt" viewBox="0 0 1306.000000 1204.000000"
 preserveAspectRatio="xMidYMid meet">

<g transform="translate(0.000000,1204.000000) scale(0.100000,-0.100000)"
fill="#000000" stroke="none">
<path d="M0 6020 l0 -6020 6530 0 6530 0 0 6020 0 6020 -6530 0 -6530 0 0
-6020z m6805 4764 c529 -83 979 -379 1263 -829 27 -44 202 -343 387 -665 576
-998 623 -1079 970 -1680 768 -1330 1728 -2992 1888 -3270 177 -307 224 -411
277 -615 88 -341 78 -692 -31 -1016 -152 -453 -457 -828 -858 -1054 -185 -104
-382 -172 -609 -211 l-144 -24 -3430 0 c-3028 0 -3443 2 -3534 15 -623 93
-1120 450 -1400 1007 -119 237 -182 483 -191 750 -11 314 43 572 177 853 31
66 234 426 450 800 216 374 549 950 740 1280 190 330 483 836 650 1125 514
890 1260 2183 1400 2425 165 287 236 395 342 515 305 347 746 569 1208 610
118 10 326 3 445 -16z"/>
<path d="M6378 9900 c-240 -38 -451 -155 -592 -329 -29 -37 -101 -147 -158
-246 -85 -145 -689 -1190 -943 -1630 -244 -423 -1028 -1781 -1600 -2770 -379
-654 -701 -1218 -716 -1252 -230 -504 36 -1122 561 -1305 162 -56 -112 -52
3495 -55 2224 -3 3348 0 3425 6 248 23 421 103 596 276 200 198 294 420 294
695 0 162 -29 289 -94 419 -23 44 -557 972 -1126 1956 -73 127 -201 347 -283
490 -294 511 -796 1380 -1140 1975 -193 333 -441 764 -553 957 -218 379 -243
419 -313 502 -105 126 -307 248 -476 291 -92 23 -291 34 -377 20z m275 -1975
c179 -46 328 -187 383 -360 33 -104 37 -168 25 -375 -15 -252 -29 -472 -41
-675 -11 -187 -25 -420 -40 -680 -6 -93 -15 -244 -21 -335 -5 -91 -14 -266
-18 -390 -9 -244 -15 -272 -72 -362 -90 -140 -248 -210 -419 -186 -161 22
-296 143 -339 303 -6 22 -26 319 -46 660 -65 1140 -85 1479 -95 1595 -14 164
-12 295 6 370 48 204 197 367 394 431 69 22 205 24 283 4z m2 -3690 c251 -66
418 -305 402 -575 -12 -191 -117 -355 -286 -444 -224 -117 -474 -77 -646 105
-168 178 -203 415 -94 632 63 125 212 244 352 282 70 18 199 19 272 0z"/>
</g>
</svg>
